<svg width="25" height="24" viewBox="0 0 25 24" fill="none" xmlns="http://www.w3.org/2000/svg">
<path d="M24.1071 22.2718C23.5865 22.2811 23.0818 22.0982 22.6955 21.7603C22.6018 21.6956 22.5018 21.6273 22.3973 21.5599L24.2768 16.7082C24.4051 16.3772 24.4621 16.0243 24.4443 15.6712C24.4265 15.3182 24.3342 14.9724 24.1731 14.6551C24.012 14.3378 23.7856 14.0557 23.5077 13.8263C23.2298 13.5968 22.9063 13.4248 22.5571 13.3207L21.4232 12.9829C21.4254 12.975 21.4272 12.9669 21.4286 12.9588V7.77526C21.4286 7.08788 21.1464 6.42866 20.644 5.94261C20.1417 5.45656 19.4604 5.1835 18.75 5.1835H16.0714V2.59175C16.0714 1.90438 15.7892 1.24515 15.2869 0.759107C14.7846 0.273059 14.1033 0 13.3929 0H11.6071C10.8967 0 10.2154 0.273059 9.71311 0.759107C9.21078 1.24515 8.92857 1.90438 8.92857 2.59175V5.1835H6.25C5.5396 5.1835 4.85829 5.45656 4.35596 5.94261C3.85363 6.42866 3.57143 7.08788 3.57143 7.77526V12.9588C3.57279 12.9669 3.57457 12.975 3.57679 12.9829L2.44286 13.3207C2.09359 13.4248 1.77001 13.5968 1.49203 13.8263C1.21406 14.0559 0.987557 14.338 0.826475 14.6554C0.665393 14.9728 0.573135 15.3187 0.555376 15.6719C0.537618 16.0251 0.594735 16.378 0.723214 16.709L2.60357 21.5616C2.5 21.629 2.40089 21.6964 2.30804 21.7603C1.9206 22.0986 1.41461 22.2815 0.892857 22.2718C0.656057 22.2718 0.428955 22.3628 0.261512 22.5248C0.0940686 22.6868 0 22.9066 0 23.1357C0 23.3648 0.0940686 23.5846 0.261512 23.7466C0.428955 23.9086 0.656057 23.9996 0.892857 23.9996C1.78871 24.0114 2.65978 23.715 3.35089 23.1634C3.7381 22.8253 4.24373 22.6424 4.76518 22.6519C5.28693 22.6422 5.79292 22.8251 6.18036 23.1634C6.87714 23.7031 7.74312 23.9972 8.63571 23.9972C9.52831 23.9972 10.3943 23.7031 11.0911 23.1634C11.4825 22.8335 11.9841 22.6518 12.5031 22.6518C13.0222 22.6518 13.5237 22.8335 13.9152 23.1634C14.6113 23.7046 15.4775 23.9997 16.3705 23.9997C17.2636 23.9997 18.1298 23.7046 18.8259 23.1634C19.2165 22.8328 19.7177 22.6507 20.2366 22.6507C20.7555 22.6507 21.2567 22.8328 21.6473 23.1634C22.3388 23.7157 23.2106 24.0121 24.1071 23.9996C24.3439 23.9996 24.571 23.9086 24.7385 23.7466C24.9059 23.5846 25 23.3648 25 23.1357C25 22.9066 24.9059 22.6868 24.7385 22.5248C24.571 22.3628 24.3439 22.2718 24.1071 22.2718ZM10.7143 2.59175C10.7143 2.36263 10.8084 2.14289 10.9758 1.98087C11.1432 1.81885 11.3703 1.72783 11.6071 1.72783H13.3929C13.6297 1.72783 13.8568 1.81885 14.0242 1.98087C14.1916 2.14289 14.2857 2.36263 14.2857 2.59175V5.1835H10.7143V2.59175ZM5.35714 7.77526C5.35714 7.54613 5.45121 7.32639 5.61865 7.16437C5.7861 7.00236 6.0132 6.91134 6.25 6.91134H18.75C18.9868 6.91134 19.2139 7.00236 19.3813 7.16437C19.5488 7.32639 19.6429 7.54613 19.6429 7.77526V12.4534L13.8143 10.7178C12.9585 10.4612 12.0424 10.4612 11.1866 10.7178L5.35714 12.4534V7.77526ZM10.0518 21.7603C9.65947 22.0902 9.15723 22.2718 8.6375 22.2718C8.11777 22.2718 7.61553 22.0902 7.22321 21.7603C6.5321 21.2087 5.66103 20.9123 4.76518 20.9241C4.6014 20.9242 4.43776 20.9332 4.275 20.9509L2.39554 16.1026C2.3526 15.9922 2.33345 15.8746 2.33926 15.7568C2.34507 15.6391 2.37573 15.5237 2.42934 15.4179C2.48295 15.312 2.55839 15.2179 2.651 15.1413C2.74361 15.0647 2.85144 15.0073 2.96786 14.9726L11.6071 12.4015V21.0182C11.0393 21.1537 10.5086 21.4069 10.0518 21.7603ZM17.7848 21.7603C17.3942 22.0909 16.893 22.273 16.3741 22.273C15.8552 22.273 15.354 22.0909 14.9634 21.7603C14.5024 21.4037 13.9664 21.1489 13.3929 21.0139V12.4007L22.0321 14.9726C22.1485 15.0073 22.2562 15.0647 22.3487 15.1413C22.4413 15.2178 22.5166 15.3118 22.5702 15.4176C22.6238 15.5233 22.6545 15.6386 22.6604 15.7562C22.6663 15.8739 22.6473 15.9914 22.6045 16.1017L20.7295 20.9509C20.5682 20.9332 20.406 20.9242 20.2437 20.9241C19.3475 20.9118 18.476 21.2082 17.7848 21.7603Z" fill="#414B5B"/>
</svg>
