<svg width="20" height="20" viewBox="0 0 20 20" fill="none" xmlns="http://www.w3.org/2000/svg">
<path opacity="0.4" d="M4 11.6086C3.60444 11.6086 3.21776 11.4854 2.88886 11.2547C2.55996 11.0239 2.30362 10.696 2.15224 10.3122C2.00087 9.92851 1.96126 9.50627 2.03843 9.09891C2.1156 8.69155 2.30608 8.31737 2.58579 8.02368C2.86549 7.72999 3.22186 7.52998 3.60982 7.44895C3.99778 7.36792 4.39991 7.40951 4.76536 7.56845C5.13081 7.7274 5.44317 7.99656 5.66293 8.3419C5.8827 8.68725 5.99999 9.09326 5.99999 9.5086C5.99999 10.0656 5.78928 10.5997 5.41421 10.9935C5.03914 11.3874 4.53043 11.6086 4 11.6086ZM17.8046 10.0035C17.8666 9.93853 17.9157 9.86138 17.9492 9.77646C17.9827 9.69155 18 9.60052 18 9.5086C18 9.41668 17.9827 9.32566 17.9492 9.24074C17.9157 9.15582 17.8666 9.07867 17.8046 9.0137L15.138 6.2137C15.0765 6.14684 15.0029 6.09352 14.9216 6.05683C14.8402 6.02014 14.7528 6.00083 14.6642 6.00003C14.5757 5.99922 14.4879 6.01693 14.406 6.05213C14.3241 6.08732 14.2496 6.1393 14.1871 6.20502C14.1245 6.27075 14.075 6.34891 14.0414 6.43493C14.0079 6.52096 13.991 6.61314 13.9918 6.70608C13.9926 6.79903 14.011 6.89088 14.0459 6.97628C14.0809 7.06169 14.1316 7.13893 14.1953 7.2035L15.7239 8.8086L9.66666 8.8086C9.48984 8.8086 9.32028 8.88235 9.19525 9.01363C9.07023 9.1449 8.99999 9.32295 8.99999 9.5086C8.99999 9.69425 9.07023 9.8723 9.19525 10.0036C9.32028 10.1349 9.48984 10.2086 9.66666 10.2086L15.7239 10.2086L14.1953 11.8137C14.0739 11.9457 14.0067 12.1225 14.0082 12.3061C14.0097 12.4896 14.0798 12.6652 14.2034 12.795C14.327 12.9248 14.4942 12.9984 14.669 13C14.8438 13.0016 15.0122 12.931 15.138 12.8035L17.8046 10.0035Z" fill="#414B5B"/>
</svg>
