<svg width="20" height="20" viewBox="0 0 20 20" fill="none" xmlns="http://www.w3.org/2000/svg">
<path d="M14.14 2H4.86C4.10189 2.00132 3.3752 2.30307 2.83913 2.83913C2.30307 3.3752 2.00132 4.10189 2 4.86V14.14C2.00132 14.8981 2.30307 15.6248 2.83913 16.1609C3.3752 16.6969 4.10189 16.9987 4.86 17H14.14C14.8981 16.9987 15.6248 16.6969 16.1609 16.1609C16.6969 15.6248 16.9987 14.8981 17 14.14V4.86C16.9987 4.10189 16.6969 3.3752 16.1609 2.83913C15.6248 2.30307 14.8981 2.00132 14.14 2ZM16 14.14C15.9987 14.6329 15.8023 15.1052 15.4538 15.4538C15.1052 15.8023 14.6329 15.9987 14.14 16H4.86C4.3671 15.9987 3.89477 15.8023 3.54624 15.4538C3.19771 15.1052 3.00132 14.6329 3 14.14V4.86C3.00132 4.3671 3.19771 3.89477 3.54624 3.54624C3.89477 3.19771 4.3671 3.00132 4.86 3H14.14C14.6329 3.00132 15.1052 3.19771 15.4538 3.54624C15.8023 3.89477 15.9987 4.3671 16 4.86V14.14Z" fill="#EFB33D"/>
<path d="M14 10.42C13.8674 10.42 13.7402 10.4727 13.6464 10.5664C13.5527 10.6602 13.5 10.7874 13.5 10.92V12.795L6.205 5.5H8.08C8.21261 5.5 8.33979 5.44732 8.43355 5.35355C8.52732 5.25979 8.58 5.13261 8.58 5C8.58 4.86739 8.52732 4.74021 8.43355 4.64645C8.33979 4.55268 8.21261 4.5 8.08 4.5H4.845C4.7535 4.5 4.66575 4.53635 4.60105 4.60105C4.53635 4.66575 4.5 4.7535 4.5 4.845V8.08C4.5 8.21261 4.55268 8.33979 4.64645 8.43355C4.74021 8.52732 4.86739 8.58 5 8.58C5.13261 8.58 5.25979 8.52732 5.35355 8.43355C5.44732 8.33979 5.5 8.21261 5.5 8.08V6.205L12.795 13.5H10.92C10.7874 13.5 10.6602 13.5527 10.5664 13.6464C10.4727 13.7402 10.42 13.8674 10.42 14C10.42 14.1326 10.4727 14.2598 10.5664 14.3536C10.6602 14.4473 10.7874 14.5 10.92 14.5H14.155C14.2465 14.5 14.3343 14.4637 14.399 14.399C14.4637 14.3343 14.5 14.2465 14.5 14.155V10.92C14.5 10.7874 14.4473 10.6602 14.3536 10.5664C14.2598 10.4727 14.1326 10.42 14 10.42Z" fill="#EFB33D"/>
</svg>
