<svg width="20" height="20" viewBox="0 0 20 20" fill="none" xmlns="http://www.w3.org/2000/svg">
<path d="M9.38656 9.67068C10.5764 9.67068 11.6065 9.24345 12.4485 8.40053C13.2901 7.55774 13.717 6.52654 13.717 5.33521C13.717 4.14429 13.2903 3.11295 12.4483 2.26988C11.6064 1.42723 10.5762 1 9.38656 1C8.19662 1 7.16661 1.42723 6.32481 2.27002C5.483 3.11281 5.05613 4.14415 5.05613 5.33521C5.05613 6.52654 5.483 7.55788 6.32481 8.40067C7.16689 9.24332 8.19703 9.67068 9.38656 9.67068ZM7.06991 3.01585C7.71584 2.36917 8.47356 2.05482 9.38656 2.05482C10.2994 2.05482 11.0573 2.36917 11.7033 3.01585C12.3493 3.66267 12.6634 4.42142 12.6634 5.33521C12.6634 6.24927 12.3493 7.00787 11.7033 7.65469C11.0573 8.30151 10.2994 8.61586 9.38656 8.61586C8.47384 8.61586 7.71611 8.30138 7.06991 7.65469C6.42384 7.00801 6.10973 6.24927 6.10973 5.33521C6.10973 4.42142 6.42384 3.66267 7.06991 3.01585Z" fill="#EFB33D"/>
<path d="M16.9636 14.8411C16.9394 14.4904 16.8903 14.1078 16.818 13.7038C16.745 13.2967 16.651 12.9119 16.5386 12.5602C16.4222 12.1967 16.2644 11.8377 16.0689 11.4937C15.8663 11.1367 15.6282 10.8258 15.361 10.5699C15.0816 10.3023 14.7395 10.0871 14.3439 9.9301C13.9496 9.77396 13.5127 9.69485 13.0454 9.69485C12.8619 9.69485 12.6844 9.77025 12.3416 9.99368C12.1306 10.1314 11.8839 10.2907 11.6084 10.4669C11.3729 10.6172 11.0539 10.7579 10.6598 10.8854C10.2753 11.0099 9.8849 11.0731 9.49945 11.0731C9.11428 11.0731 8.7239 11.0099 8.33914 10.8854C7.94546 10.7581 7.62627 10.6173 7.39116 10.4671C7.11833 10.2925 6.87143 10.1332 6.65731 9.99355C6.31479 9.77011 6.1373 9.69472 5.95376 9.69472C5.48629 9.69472 5.04955 9.77396 4.65546 9.93024C4.26014 10.0869 3.9179 10.3021 3.63821 10.5701C3.37101 10.826 3.13288 11.1368 2.93042 11.4937C2.73523 11.8377 2.57721 12.1966 2.46089 12.5604C2.34855 12.9121 2.25459 13.2967 2.18161 13.7038C2.10919 14.1072 2.06022 14.49 2.03594 14.8415C2.01207 15.1853 2 15.543 2 15.9045C2 16.8441 2.29834 17.6047 2.88666 18.1657C3.46771 18.7193 4.23641 19 5.17149 19H13.8285C14.7633 19 15.532 18.7193 16.1132 18.1657C16.7017 17.6051 17 16.8442 17 15.9043C16.9999 15.5416 16.9877 15.1839 16.9636 14.8411ZM15.3868 17.4015C15.0028 17.7673 14.4931 17.9452 13.8284 17.9452H5.17149C4.50663 17.9452 3.99691 17.7673 3.61311 17.4016C3.23658 17.0428 3.0536 16.5529 3.0536 15.9045C3.0536 15.5672 3.06471 15.2342 3.08693 14.9145C3.1086 14.6008 3.15291 14.2562 3.21861 13.8901C3.28349 13.5285 3.36607 13.1892 3.46428 12.882C3.55852 12.5874 3.68704 12.2957 3.84643 12.0148C3.99856 11.747 4.17358 11.5172 4.36672 11.3321C4.54737 11.1589 4.77507 11.0172 5.04337 10.9109C5.29151 10.8126 5.57038 10.7587 5.87311 10.7506C5.91001 10.7703 5.97571 10.8078 6.08216 10.8773C6.29875 11.0186 6.54839 11.1798 6.82438 11.3563C7.13548 11.5548 7.53629 11.7342 8.01514 11.889C8.5047 12.0474 9.004 12.1279 9.49959 12.1279C9.99518 12.1279 10.4946 12.0474 10.9839 11.8891C11.4632 11.7341 11.8638 11.5548 12.1753 11.356C12.4578 11.1753 12.7004 11.0187 12.917 10.8773C13.0235 10.8079 13.0892 10.7703 13.1261 10.7506C13.4289 10.7587 13.7078 10.8126 13.9561 10.9109C14.2242 11.0172 14.4519 11.1591 14.6326 11.3321C14.8257 11.5171 15.0008 11.7468 15.1529 12.0149C15.3124 12.2957 15.4411 12.5876 15.5352 12.8819C15.6335 13.1895 15.7162 13.5287 15.781 13.89C15.8465 14.2568 15.891 14.6015 15.9127 14.9146C15.935 15.2331 15.9463 15.5662 15.9464 15.9045C15.9463 16.5531 15.7633 17.0428 15.3868 17.4015Z" fill="#EFB33D"/>
</svg>
