<svg width="20" height="20" viewBox="0 0 20 20" fill="none" xmlns="http://www.w3.org/2000/svg">
<path d="M17.6596 14.4061C17.3536 14.5674 16.9769 14.4441 16.819 14.1273C15.8607 12.2039 13.3162 9.44657 9.99997 9.44657C7.02584 9.44657 4.38281 11.7153 3.181 14.1273C3.02291 14.4429 2.64641 14.5675 2.33969 14.4052C2.033 14.243 1.91163 13.856 2.06872 13.5399C3.44953 10.763 6.48606 8.15921 9.99997 8.15921C14.0075 8.15921 16.8777 11.4211 17.9312 13.5399C18.0885 13.8563 17.9669 14.2442 17.6596 14.4061ZM2.24285 7.493L3.63485 8.78628C3.89266 9.02583 4.28772 9.00185 4.51756 8.73949C4.74875 8.47551 4.72844 8.06852 4.47213 7.83039L3.08013 6.53711C2.82391 6.29904 2.42872 6.3199 2.19741 6.5839C1.96622 6.84788 1.98653 7.25487 2.24285 7.493ZM16.3651 8.78628L17.757 7.493C18.0133 7.25487 18.0337 6.84788 17.8025 6.5839C17.5712 6.31996 17.1761 6.29898 16.9197 6.53711L15.5278 7.83039C15.2715 8.06848 15.2512 8.47551 15.4823 8.73949C15.7124 9.00214 16.1076 9.02554 16.3651 8.78628ZM9.99994 6.22013C10.3451 6.22013 10.6249 5.93192 10.6249 5.57645V3.64368C10.6249 3.28821 10.3451 3 9.99994 3C9.65475 3 9.37494 3.28821 9.37494 3.64368V5.57645C9.37497 5.93195 9.65478 6.22013 9.99994 6.22013ZM13.0702 13.8331C13.0702 15.5793 11.6929 17 9.99997 17C8.30703 17 6.92969 15.5793 6.92969 13.8331C6.92969 12.0869 8.30703 10.6663 9.99997 10.6663C11.6929 10.6663 13.0702 12.0869 13.0702 13.8331ZM11.8203 13.8331C11.8203 12.7968 11.0037 11.9536 10 11.9536C8.99628 11.9536 8.17969 12.7968 8.17969 13.8331C8.17969 14.8695 8.99625 15.7126 9.99997 15.7126C11.0037 15.7126 11.8203 14.8695 11.8203 13.8331Z" fill="#EFB33D"/>
</svg>
