<svg width="20" height="20" viewBox="0 0 20 20" fill="none" xmlns="http://www.w3.org/2000/svg">
<path d="M16.4615 15.9231H16.2821V12.6923H16.4615C16.7588 12.6923 17 12.4511 17 12.1538C17 11.8566 16.7588 11.6154 16.4615 11.6154H14.8462V4.97436C14.8462 3.88523 13.9609 3 12.8718 3H7.12821C6.03908 3 5.15385 3.88523 5.15385 4.97436V11.6154H3.53846C3.24123 11.6154 3 11.8566 3 12.1538C3 12.4511 3.24123 12.6923 3.53846 12.6923H3.71795V15.9231H3.53846C3.24123 15.9231 3 16.1643 3 16.4615C3 16.7588 3.24123 17 3.53846 17H16.4615C16.7588 17 17 16.7588 17 16.4615C17 16.1643 16.7588 15.9231 16.4615 15.9231ZM6.23077 4.97436C6.23077 4.47969 6.63354 4.07692 7.12821 4.07692H12.8718C13.3665 4.07692 13.7692 4.47969 13.7692 4.97436V11.6154H6.23077V4.97436ZM6.58974 15.9231H4.79487V12.6923H6.58974V15.9231ZM9.46154 15.9231H7.66667V12.6923H9.46154V15.9231ZM12.3333 15.9231H10.5385V12.6923H12.3333V15.9231ZM15.2051 15.9231H13.4103V12.6923H15.2051V15.9231Z" fill="#EFB33D"/>
</svg>
