<svg width="20" height="20" viewBox="0 0 20 20" fill="none" xmlns="http://www.w3.org/2000/svg">
<g opacity="0.4">
<path d="M17.001 13.8508C17.029 11.176 15.786 8.68975 13.658 7.28142C12.934 6.80258 12.15 6.49383 11.349 6.32267C11.443 6.11033 11.5 5.87525 11.5 5.625C11.5 4.72908 10.827 4 10 4C9.173 4 8.5 4.72908 8.5 5.625C8.5 5.87525 8.557 6.11033 8.651 6.32267C7.85 6.49383 7.066 6.8015 6.342 7.28033C4.214 8.68867 2.971 11.1749 2.999 13.8497C2.419 14.075 2 14.6698 2 15.375C2 16.2709 2.673 17 3.5 17H16.5C17.327 17 18 16.2709 18 15.375C18 14.6698 17.581 14.075 17.001 13.8508ZM10 5.08333C10.275 5.08333 10.5 5.32708 10.5 5.625C10.5 5.9175 10.284 6.15367 10.016 6.16342C10.005 6.16342 9.994 6.16342 9.984 6.16342C9.716 6.15367 9.5 5.9175 9.5 5.625C9.5 5.32708 9.725 5.08333 10 5.08333ZM6.863 8.2055C7.823 7.57067 8.898 7.25217 9.974 7.24783C9.983 7.24675 9.991 7.25 10 7.25C10.009 7.25 10.017 7.24783 10.026 7.24675C11.102 7.25217 12.177 7.56958 13.136 8.20442C14.938 9.39717 16 11.4902 16.003 13.75H3.997C4 11.4902 5.062 9.39717 6.863 8.2055ZM16.5 15.9167H3.5C3.225 15.9167 3 15.6729 3 15.375C3 15.0771 3.225 14.8333 3.5 14.8333H16.5C16.775 14.8333 17 15.0771 17 15.375C17 15.6729 16.775 15.9167 16.5 15.9167Z" fill="#414B5B"/>
<path d="M13.723 10.1349C12.775 8.98983 11.419 8.33333 10 8.33333C9.724 8.33333 9.5 8.576 9.5 8.875C9.5 9.174 9.724 9.41667 10 9.41667C11.135 9.41667 12.221 9.94208 12.979 10.8586C13.078 10.9778 13.214 11.0384 13.351 11.0384C13.47 11.0384 13.589 10.9929 13.685 10.8998C13.89 10.6993 13.908 10.3581 13.723 10.1349Z" fill="#414B5B"/>
</g>
</svg>
