<svg width="19" height="22" viewBox="0 0 19 22" fill="none" xmlns="http://www.w3.org/2000/svg">
<path d="M16.1822 11.1533C16.102 11.0731 16.0064 11.0092 15.9008 10.9655C15.7952 10.9219 15.6818 10.8992 15.5672 10.8989C15.4526 10.8986 15.3391 10.9206 15.2332 10.9638C15.1274 11.0069 15.0314 11.0702 14.9508 11.15C14.8702 11.2299 14.8066 11.3246 14.7638 11.4288C14.721 11.5329 14.6997 11.6444 14.7013 11.7567C14.7029 11.869 14.7272 11.9798 14.773 12.0828C14.8187 12.1857 14.8849 12.2787 14.9677 12.3564C15.7005 13.0628 16.2818 13.9055 16.6776 14.835C17.0734 15.7645 17.2757 16.7621 17.2727 17.7692C17.2727 18.8042 14.2449 20.3077 9.5 20.3077C4.75512 20.3077 1.72731 18.8034 1.72731 17.7675C1.7244 16.7673 1.92402 15.7764 2.31461 14.8523C2.7052 13.9282 3.279 13.0891 4.0028 12.3837C4.08467 12.3055 4.14987 12.2122 4.19463 12.1091C4.23938 12.006 4.2628 11.8952 4.26353 11.7832C4.26425 11.6712 4.24227 11.5602 4.19885 11.4565C4.15543 11.3529 4.09144 11.2588 4.01059 11.1795C3.92975 11.1003 3.83365 11.0376 3.72788 10.9951C3.62211 10.9526 3.50877 10.931 3.39444 10.9317C3.28011 10.9324 3.16706 10.9554 3.06185 10.9992C2.95663 11.0431 2.86136 11.107 2.78154 11.1872C1.89668 12.0496 1.19522 13.0754 0.717774 14.2052C0.240325 15.335 -0.00362801 16.5464 4.07735e-05 17.7692C4.07735e-05 20.5172 4.89425 22 9.5 22C14.1058 22 19 20.5172 19 17.7692C19.0038 16.5382 18.7565 15.3188 18.2726 14.1826C17.7887 13.0465 17.078 12.0166 16.1822 11.1533Z" fill="#414B5B"/>
<path d="M9.5 11.8462C10.6957 11.8462 11.8645 11.4988 12.8587 10.8479C13.8528 10.1971 14.6277 9.27204 15.0852 8.18974C15.5428 7.10744 15.6625 5.91651 15.4293 4.76754C15.196 3.61858 14.6202 2.56319 13.7748 1.73483C12.9293 0.906474 11.8521 0.342356 10.6794 0.113813C9.50671 -0.11473 8.29117 0.00256638 7.18651 0.45087C6.08186 0.899174 5.13769 1.65835 4.47341 2.63239C3.80913 3.60644 3.45457 4.75161 3.45457 5.92308C3.45642 7.49342 4.09394 8.99892 5.22728 10.1093C6.36062 11.2197 7.89722 11.8443 9.5 11.8462ZM9.5 1.69231C10.3541 1.69231 11.1889 1.94044 11.899 2.40532C12.6092 2.87021 13.1626 3.53096 13.4895 4.30403C13.8163 5.07711 13.9018 5.92777 13.7352 6.74846C13.5686 7.56915 13.1573 8.323 12.5534 8.91468C11.9495 9.50637 11.1801 9.90931 10.3424 10.0726C9.50479 10.2358 8.63655 10.152 7.84751 9.8318C7.05847 9.51158 6.38406 8.96931 5.90958 8.27357C5.43509 7.57782 5.18184 6.75985 5.18184 5.92308C5.18318 4.80141 5.63857 3.72607 6.44809 2.93293C7.25761 2.1398 8.35517 1.69363 9.5 1.69231Z" fill="#414B5B"/>
</svg>
