<svg width="20" height="20" viewBox="0 0 20 20" fill="none" xmlns="http://www.w3.org/2000/svg">
<path d="M16.9531 8.60818V3.78038C16.9531 2.79868 16.1252 2 15.1075 2H4.89255C3.87484 2 3.04695 2.79868 3.04695 3.78038V8.60818C1.87427 8.8803 1 9.89995 1 11.1134V14.7144C1 15.0001 1.24008 15.2317 1.53624 15.2317H3.04691V16.4827C3.04691 16.7684 3.28699 17 3.58315 17C3.87931 17 4.11939 16.7684 4.11939 16.4827V15.2317H15.8806V16.4827C15.8806 16.7684 16.1207 17 16.4168 17C16.713 17 16.9531 16.7684 16.9531 16.4827V15.2317H18.4638C18.7599 15.2317 19 15.0001 19 14.7144V11.1134C19.0001 9.89995 18.1258 8.8803 16.9531 8.60818ZM4.11943 3.78038C4.11943 3.36916 4.46628 3.03457 4.89255 3.03457H15.1075C15.5338 3.03457 15.8806 3.36916 15.8806 3.78038V8.53636H14.1086V7.72028C14.1086 6.36819 12.9682 5.26819 11.5666 5.26819H8.43357C7.03189 5.26819 5.89155 6.36822 5.89155 7.72028V8.53632H4.11943V3.78038ZM13.0361 7.72028V8.53632H6.96397V7.72028C6.96397 6.93863 7.62318 6.30273 8.4335 6.30273H11.5665C12.3768 6.3027 13.0361 6.93866 13.0361 7.72028ZM2.07248 14.1971V11.1134C2.07248 10.2629 2.78985 9.57089 3.6716 9.57089H16.3284C17.2102 9.57089 17.9275 10.2629 17.9275 11.1134V14.1971H2.07248Z" fill="#EFB33D"/>
</svg>
