<svg width="140" height="44" viewBox="0 0 140 44" fill="none" xmlns="http://www.w3.org/2000/svg">
<path d="M128.002 12.6318C128.002 31.4105 128.002 38.2869 128.002 43.4443L136.232 37.1539C136.658 36.8593 137.004 36.4538 137.235 35.9771C137.466 35.5005 137.575 34.9691 137.551 34.435C137.528 33.9009 137.372 33.3825 137.099 32.9305C136.826 32.4786 136.446 32.1086 135.996 31.8569L128.002 12.6318Z" fill="url(#paint0_linear_4103_55)"/>
<path d="M10.927 34.7374H133.536C133.793 34.7376 134.047 34.7983 134.278 34.9152C134.51 35.0321 134.714 35.2021 134.874 35.4128C135.035 35.6234 135.148 35.8692 135.206 36.1321C135.264 36.395 135.265 36.6682 135.209 36.9316L133.513 39.3613L137.069 36.8285C137.926 36.2357 138.573 35.3632 138.911 34.3457C139.249 33.3282 139.259 32.2222 138.939 31.1983L129.564 1.81058C129.409 1.32207 129.112 0.897104 128.714 0.59583C128.317 0.294556 127.839 0.132235 127.349 0.131844H1.54295C1.23365 0.130819 0.931242 0.227802 0.675238 0.410125C0.419235 0.592447 0.221561 0.851628 0.107995 1.15381C-0.00557059 1.456 -0.0297426 1.78714 0.038672 2.10397C0.107087 2.4208 0.264894 2.70859 0.491467 2.92974L14.1235 16.3057C14.4964 16.6745 14.7541 17.1534 14.8625 17.6792C14.971 18.205 14.9252 18.753 14.731 19.2508L9.50625 32.504C9.40938 32.7494 9.37167 33.0161 9.39641 33.2805C9.42116 33.5449 9.50765 33.7988 9.64815 34.0197C9.78866 34.2406 9.97888 34.4216 10.2019 34.5468C10.425 34.672 10.674 34.7375 10.927 34.7374Z" fill="url(#paint1_linear_4103_55)"/>
<defs>
<linearGradient id="paint0_linear_4103_55" x1="123.763" y1="51.7185" x2="123.763" y2="33.8054" gradientUnits="userSpaceOnUse">
<stop offset="0.01" stop-color="#BE3758"/>
<stop offset="1" stop-color="#79172F"/>
</linearGradient>
<linearGradient id="paint1_linear_4103_55" x1="23.4454" y1="8.79024" x2="129.976" y2="27.17" gradientUnits="userSpaceOnUse">
<stop stop-color="#EA2857"/>
<stop offset="1" stop-color="#BE3758"/>
</linearGradient>
</defs>
</svg>
