<svg width="322" height="112" viewBox="0 0 322 112" fill="none" xmlns="http://www.w3.org/2000/svg">
<path d="M20.4961 46.6797C23.3607 46.875 28.9271 46.9889 37.1953 47.0215C45.4961 47.0215 54.5293 47.0052 64.2949 46.9727C64.5879 46.9727 64.7995 46.875 64.9297 46.6797C70.8867 37.4674 76.2415 28.9388 80.9941 21.0938C85.7467 13.2161 89.2298 7.51953 91.4434 4.00391C92.8757 1.72526 93.901 1.39974 94.5195 3.02734C95.1706 4.65495 95.0078 5.98958 94.0312 7.03125C92.1107 9.14714 88.709 13.8835 83.8262 21.2402C78.9434 28.5645 73.377 37.0117 67.127 46.582C66.9316 46.8424 67.0293 46.9727 67.4199 46.9727L86.0234 46.875C86.4141 46.875 86.6908 46.7448 86.8535 46.4844C90.304 41.4388 94.5033 35.0423 99.4512 27.2949C104.399 19.515 108.061 13.6068 110.438 9.57031C110.893 8.82161 111.544 9.19596 112.391 10.6934C113.27 12.1582 113.335 13.2487 112.586 13.9648C111.967 14.5182 110.926 15.6413 109.461 17.334C107.02 20.1335 103.699 24.6094 99.5 30.7617C95.3008 36.9141 91.8014 42.1549 89.002 46.4844C88.8392 46.7448 88.9368 46.875 89.2949 46.875L100.379 46.7773C102.039 46.7448 102.495 47.0866 101.746 47.8027C101.03 48.5189 99.8581 48.8118 98.2305 48.6816L88.1719 48.4863C87.9115 48.4863 87.6999 48.6165 87.5371 48.877C80.8314 59.6842 75.5091 68.5059 71.5703 75.3418C67.6315 82.2103 65.5645 86.2956 65.3691 87.5977C64.4577 89.8112 63.5951 89.7298 62.7812 87.3535C61.9674 85.0098 62.8301 82.2266 65.3691 79.0039C66.8014 77.2135 69.1289 73.8444 72.3516 68.8965C75.6068 63.916 79.9036 57.2591 85.2422 48.9258C85.4049 48.6328 85.3561 48.4863 85.0957 48.4863L66.4922 48.3887C66.069 48.4538 65.7598 48.6328 65.5645 48.9258C61.8535 54.6875 58.9076 59.0658 56.7266 62.0605C54.5456 65.0228 52.3646 67.8385 50.1836 70.5078C46.7656 74.6094 43.3314 78.2064 39.8809 81.2988C36.4629 84.4238 33.11 86.6862 29.8223 88.0859C23.5397 90.7227 17.4362 89.8926 11.5117 85.5957C5.58724 81.3314 2.02279 75.8789 0.818359 69.2383C0.623047 68.099 0.916016 67.0247 1.69727 66.0156C2.44596 64.974 3.09701 65.3158 3.65039 67.041C4.75716 70.3288 7.01953 74.0723 10.4375 78.2715C13.8555 82.5033 17.7617 84.9447 22.1562 85.5957C26.2578 86.2142 30.5384 84.9935 34.998 81.9336C39.4902 78.9062 44.0312 74.7233 48.6211 69.3848C52.4297 64.86 57.3939 57.9915 63.5137 48.7793C63.6439 48.5514 63.5462 48.4375 63.2207 48.4375C55.4082 48.4701 47.8398 48.5677 40.5156 48.7305C33.224 48.8607 27.1042 49.0397 22.1562 49.2676C18.9336 49.4629 17.0944 49.0397 16.6387 47.998C16.1829 46.9238 17.4688 46.4844 20.4961 46.6797ZM104.285 54.4434C104.188 54.6387 104.334 54.834 104.725 55.0293C105.376 55.485 105.457 56.0059 104.969 56.5918C103.829 58.3496 102.902 60.0749 102.186 61.7676C101.469 63.4603 101.014 64.8112 100.818 65.8203C100.623 66.7969 100.623 67.4642 100.818 67.8223C101.046 68.1803 101.811 67.8874 103.113 66.9434C104.448 65.9993 106.71 64.0462 109.9 61.084C113.09 58.0892 115.141 56.1035 116.053 55.127C116.411 54.9967 116.574 55.127 116.541 55.5176C116.541 55.8757 116.346 56.2337 115.955 56.5918C113.481 59.0658 110.91 61.5234 108.24 63.9648C105.604 66.4062 103.602 68.2454 102.234 69.4824C99.5977 71.8913 98.1003 72.1517 97.7422 70.2637C97.4167 68.3757 97.6771 66.1784 98.5234 63.6719C98.7839 62.8581 98.6536 62.679 98.1328 63.1348C97.8073 63.4277 96.9772 64.3229 95.6426 65.8203C94.3405 67.2852 93.0059 68.7337 91.6387 70.166C90.2715 71.5658 88.9694 72.7865 87.7324 73.8281C86.528 74.8698 85.7793 75.2604 85.4863 75C82.5566 72.6562 82.2474 69.2871 84.5586 64.8926C86.8698 60.498 89.832 56.6569 93.4453 53.3691C97.0586 50.0814 100.265 48.112 103.064 47.4609C105.896 46.8099 106.303 49.1374 104.285 54.4434ZM85.2422 72.1191C85.4375 72.9329 86.6419 72.4447 88.8555 70.6543C91.069 68.8314 93.3802 66.569 95.7891 63.8672C98.2305 61.1328 100.314 58.3984 102.039 55.6641C103.764 52.9297 104.204 51.0417 103.357 50C102.251 48.6654 100.639 48.8932 98.5234 50.6836C96.4401 52.474 94.373 54.8177 92.3223 57.7148C90.2715 60.5794 88.5137 63.4766 87.0488 66.4062C85.6165 69.3359 85.0143 71.2402 85.2422 72.1191ZM151.502 55.0293C151.697 54.9316 151.86 55.0618 151.99 55.4199C152.12 55.778 151.941 56.1686 151.453 56.5918C149.598 58.3171 147.091 60.8398 143.934 64.1602C140.809 67.4805 137.798 70.2474 134.9 72.4609C131.548 74.9023 129.22 75.6185 127.918 74.6094C126.323 73.1771 126.176 70.5078 127.479 66.6016C128.813 62.6953 130.001 59.7819 131.043 57.8613C132.833 54.5736 134.965 51.0091 137.439 47.168C139.946 43.2943 142.55 39.4857 145.252 35.7422C148.377 31.4128 151.469 27.4414 154.529 23.8281C157.589 20.1823 160.193 17.4805 162.342 15.7227C164.197 14.1927 165.597 13.5905 166.541 13.916C167.485 14.2415 167.648 15.3483 167.029 17.2363C166.313 19.4499 164.734 22.347 162.293 25.9277C159.884 29.4759 157.101 33.2031 153.943 37.1094C149.939 41.9271 146.229 46.1263 142.811 49.707C139.425 53.2878 137 55.8268 135.535 57.3242C134.103 58.7891 133.029 60.3353 132.312 61.9629C131.596 63.5905 131.059 65.0228 130.701 66.2598C130.343 67.4642 130.083 68.6849 129.92 69.9219C129.757 71.1589 129.952 72.0215 130.506 72.5098C131.092 72.998 132.345 72.5911 134.266 71.2891C137.293 69.2057 140.874 65.9993 145.008 61.6699C149.174 57.3405 151.339 55.127 151.502 55.0293ZM162.293 19.0918C160.958 19.6777 159.135 21.1751 156.824 23.584C154.513 25.9928 152.039 28.9551 149.402 32.4707C147.059 35.6283 144.715 39.0625 142.371 42.7734C140.027 46.4518 137.977 49.9674 136.219 53.3203C135.34 54.8828 135.47 55.2083 136.609 54.2969C138.204 52.7669 140.646 50.2279 143.934 46.6797C147.221 43.099 150.395 39.4368 153.455 35.6934C155.734 32.8613 157.768 30.1107 159.559 27.4414C161.382 24.7721 162.716 22.4772 163.562 20.5566C164.311 19.0267 163.888 18.5384 162.293 19.0918ZM144.959 62.9883C145.903 60.9049 147.352 58.61 149.305 56.1035C151.29 53.5645 153.488 51.3672 155.896 49.5117C159.673 46.6797 162.96 45.3613 165.76 45.5566C168.592 45.7194 170.154 47.0378 170.447 49.5117C170.773 51.9531 170.333 54.7363 169.129 57.8613C167.957 60.9538 166.069 64.2904 163.465 67.8711C160.861 71.4193 158.045 74.1699 155.018 76.123C151.99 78.1087 149.191 78.6296 146.619 77.6855C144.08 76.7415 142.794 74.7559 142.762 71.7285C142.729 68.7012 143.462 65.7878 144.959 62.9883ZM160.34 48.6328C157.964 50.0326 154.985 53.1087 151.404 57.8613C147.856 62.6139 145.887 66.7806 145.496 70.3613C145.04 74.1699 145.952 76.237 148.23 76.5625C150.509 76.888 153.195 75.8301 156.287 73.3887C159.38 70.9147 162.212 67.513 164.783 63.1836C167.387 58.8542 168.787 55.2734 168.982 52.4414C169.21 49.5768 168.429 47.8841 166.639 47.3633C164.848 46.8099 162.749 47.2331 160.34 48.6328ZM189.441 55.6641C190.353 56.9987 190.483 57.7962 189.832 58.0566C189.474 58.2194 188.693 59.3262 187.488 61.377C186.316 63.3952 185.617 65.3809 185.389 67.334C185.161 69.2871 186.072 69.6615 188.123 68.457C190.727 66.7969 193.494 64.5833 196.424 61.8164C199.354 59.0169 201.469 56.8848 202.771 55.4199C203.162 54.9967 203.374 55.0456 203.406 55.5664C203.439 56.0872 203.195 56.5755 202.674 57.0312C200.167 59.6354 197.563 62.1582 194.861 64.5996C192.192 67.041 189.881 68.9128 187.928 70.2148C185.226 71.9727 183.501 72.4772 182.752 71.7285C182.036 70.9798 181.808 69.7266 182.068 67.9688C182.361 66.2109 182.931 64.5508 183.777 62.9883C184.624 61.4258 185.438 60.1888 186.219 59.2773C186.609 58.724 186.658 58.4798 186.365 58.5449C186.072 58.5775 185.763 58.6914 185.438 58.8867C183.452 60.1888 180.49 62.4186 176.551 65.5762C172.612 68.7337 169.308 71.7448 166.639 74.6094C166.15 75.293 165.613 75.1953 165.027 74.3164C164.441 73.4375 164.376 72.6074 164.832 71.8262C166.036 69.8079 168.12 66.748 171.082 62.6465C174.044 58.5449 176.404 54.8177 178.162 51.4648C178.357 51.1068 178.96 51.1882 179.969 51.709C181.01 52.1973 180.522 53.5319 178.504 55.7129C176.974 57.3079 175.216 59.5866 173.23 62.5488C171.277 65.4785 169.861 67.7572 168.982 69.3848C168.82 69.7754 168.82 69.987 168.982 70.0195C169.113 70.0195 169.308 69.873 169.568 69.5801C170.447 68.7988 173.068 66.6992 177.43 63.2812C181.792 59.8633 184.852 57.4382 186.609 56.0059C187 55.7129 187.439 55.4525 187.928 55.2246C188.416 54.9967 188.921 55.1432 189.441 55.6641ZM188.27 107.324C184.168 108.301 180.799 107.764 178.162 105.713C175.493 103.662 173.458 101.27 172.059 98.5352C170.659 95.8008 169.878 93.3431 169.715 91.1621C169.52 88.9811 169.861 88.2812 170.74 89.0625C171.131 89.2904 171.456 89.7298 171.717 90.3809C171.945 91.0319 172.335 91.9922 172.889 93.2617C176.014 99.2839 179.171 102.832 182.361 103.906C185.519 105.013 188.693 104.427 191.883 102.148C195.073 99.9023 198.279 96.3379 201.502 91.4551C204.725 86.5723 207.947 81.1849 211.17 75.293C212.439 72.9492 213.644 70.5892 214.783 68.2129C215.955 65.8366 217.111 63.6556 218.25 61.6699C218.771 60.7259 218.689 60.5306 218.006 61.084C217.29 61.735 216.069 63.0371 214.344 64.9902C212.618 66.9434 210.584 69.0918 208.24 71.4355C205.896 73.7793 203.764 75.3906 201.844 76.2695C199.923 77.1484 198.361 76.6927 197.156 74.9023C195.431 71.9076 195.333 68.3268 196.863 64.1602C198.426 59.9935 200.835 56.2174 204.09 52.832C209.038 47.6237 213.628 45.0684 217.859 45.166C222.091 45.2311 223.442 48.0143 221.912 53.5156C221.456 54.8503 221.652 54.9805 222.498 53.9062C223.084 53.2227 223.735 52.2949 224.451 51.123C225.167 49.9186 225.688 49.0234 226.014 48.4375C226.567 47.5586 227.202 47.8027 227.918 49.1699C228.667 50.5046 228.683 51.416 227.967 51.9043C226.209 53.1087 223.247 57.2754 219.08 64.4043C217.452 67.1387 215.499 70.752 213.221 75.2441C210.975 79.7689 208.501 84.2773 205.799 88.7695C203.13 93.2617 200.314 97.2819 197.352 100.83C194.389 104.411 191.362 106.576 188.27 107.324ZM218.689 57.8613C221.229 53.1738 221.684 49.8698 220.057 47.9492C218.429 45.9961 216.15 46.0124 213.221 47.998C210.324 49.9512 207.785 52.5065 205.604 55.6641C203.455 58.7891 201.827 61.6211 200.721 64.1602C199.646 66.6992 199.044 69.1569 198.914 71.5332C198.816 73.9095 199.37 75.0326 200.574 74.9023C201.518 74.9349 203.634 73.5189 206.922 70.6543C210.242 67.7897 214.165 63.5254 218.689 57.8613ZM266.932 49.1699C268.006 49.0072 268.803 49.4466 269.324 50.4883C269.878 51.4974 269.992 52.7181 269.666 54.1504C268.82 58.0241 266.948 61.849 264.051 65.625C261.154 69.3685 258.631 71.9238 256.482 73.291C254.367 74.6582 252.413 75.3418 250.623 75.3418C248.572 75.3092 247.531 74.2676 247.498 72.2168C247.498 70.1335 247.986 68.2454 248.963 66.5527C249.191 66.097 249.533 65.7878 249.988 65.625C250.477 65.4622 250.46 65.9017 249.939 66.9434C248.93 68.7012 248.572 70.1172 248.865 71.1914C249.158 72.2331 249.858 72.6725 250.965 72.5098C252.104 72.3145 253.569 71.5169 255.359 70.1172C257.15 68.6849 259.152 66.7318 261.365 64.2578C263.611 61.7839 265.451 59.0332 266.883 56.0059C268.348 52.946 267.794 51.5625 265.223 51.8555C262.781 52.1484 259.07 54.5736 254.09 59.1309C249.142 63.6882 245.724 68.8314 243.836 74.5605C243.608 75.3418 243.022 75.2604 242.078 74.3164C241.134 73.3398 240.76 72.5749 240.955 72.0215C241.801 69.7103 243.429 66.7155 245.838 63.0371C247.693 60.3353 249.939 57.1289 252.576 53.418C255.213 49.707 257.964 45.8984 260.828 41.9922C263.562 38.2161 266.297 34.5052 269.031 30.8594C271.766 27.2135 274.223 24.0072 276.404 21.2402C277.641 19.6452 278.715 18.1478 279.627 16.748C280.571 15.3483 281.238 14.4694 281.629 14.1113C282.02 13.6556 282.492 14.1113 283.045 15.4785C283.631 16.8457 283.615 17.9199 282.996 18.7012C282.671 19.1243 282.085 19.6126 281.238 20.166C280.424 20.6868 279.155 21.9238 277.43 23.877C275.704 25.8301 273.41 28.5156 270.545 31.9336C267.68 35.319 265.044 38.623 262.635 41.8457C260.258 45.0684 258.175 48.0306 256.385 50.7324C254.627 53.4342 252.999 56.1686 251.502 58.9355C251.339 59.2936 251.242 59.6191 251.209 59.9121C251.176 60.1725 251.339 60.1237 251.697 59.7656C253.292 57.9102 255.717 55.778 258.973 53.3691C262.26 50.9603 264.913 49.5605 266.932 49.1699ZM289.734 54.4434C289.637 54.6387 289.783 54.834 290.174 55.0293C290.825 55.485 290.906 56.0059 290.418 56.5918C289.279 58.3496 288.351 60.0749 287.635 61.7676C286.919 63.4603 286.463 64.8112 286.268 65.8203C286.072 66.7969 286.072 67.4642 286.268 67.8223C286.495 68.1803 287.26 67.8874 288.562 66.9434C289.897 65.9993 292.16 64.0462 295.35 61.084C298.54 58.0892 300.59 56.1035 301.502 55.127C301.86 54.9967 302.023 55.127 301.99 55.5176C301.99 55.8757 301.795 56.2337 301.404 56.5918C298.93 59.0658 296.359 61.5234 293.689 63.9648C291.053 66.4062 289.051 68.2454 287.684 69.4824C285.047 71.8913 283.549 72.1517 283.191 70.2637C282.866 68.3757 283.126 66.1784 283.973 63.6719C284.233 62.8581 284.103 62.679 283.582 63.1348C283.257 63.4277 282.426 64.3229 281.092 65.8203C279.79 67.2852 278.455 68.7337 277.088 70.166C275.721 71.5658 274.419 72.7865 273.182 73.8281C271.977 74.8698 271.229 75.2604 270.936 75C268.006 72.6562 267.697 69.2871 270.008 64.8926C272.319 60.498 275.281 56.6569 278.895 53.3691C282.508 50.0814 285.714 48.112 288.514 47.4609C291.346 46.8099 291.753 49.1374 289.734 54.4434ZM270.691 72.1191C270.887 72.9329 272.091 72.4447 274.305 70.6543C276.518 68.8314 278.829 66.569 281.238 63.8672C283.68 61.1328 285.763 58.3984 287.488 55.6641C289.214 52.9297 289.653 51.0417 288.807 50C287.7 48.6654 286.089 48.8932 283.973 50.6836C281.889 52.474 279.822 54.8177 277.771 57.7148C275.721 60.5794 273.963 63.4766 272.498 66.4062C271.066 69.3359 270.464 71.2402 270.691 72.1191ZM287.049 109.717C286.788 110.596 286.186 110.075 285.242 108.154C284.266 106.234 284.103 104.606 284.754 103.271C289.181 96.2402 293.966 88.9486 299.109 81.3965C304.285 73.8444 309.152 66.1458 313.709 58.3008C313.742 57.9753 313.693 57.8776 313.562 58.0078C311.544 59.9284 308.777 62.6953 305.262 66.3086C301.779 69.8893 298.751 72.5749 296.18 74.3652C294.552 75.4069 293.478 75.293 292.957 74.0234C291.427 71.2891 291.834 67.5944 294.178 62.9395C296.521 58.2845 299.305 54.2643 302.527 50.8789C304.09 49.1862 305.115 48.6491 305.604 49.2676C306.124 49.8535 306.401 50.1953 306.434 50.293C303.862 53.2552 301.193 56.7708 298.426 60.8398C295.659 64.9089 294.129 68.0827 293.836 70.3613C293.445 73.1283 294.292 73.8281 296.375 72.4609C298.523 70.9635 302.365 67.4479 307.898 61.9141C313.465 56.3802 317.16 52.3275 318.982 49.7559C319.438 48.7793 320.04 49.0072 320.789 50.4395C321.57 51.8717 321.635 52.7995 320.984 53.2227C320.659 53.418 319.389 54.9479 317.176 57.8125C311.219 65.8529 305.343 74.6419 299.549 84.1797C293.755 93.75 289.588 102.262 287.049 109.717Z" fill="#414B5B"/>
</svg>
