<svg width="154" height="55" viewBox="0 0 154 55" fill="none" xmlns="http://www.w3.org/2000/svg">
<path d="M21.5541 21.6133C21.5541 41.7182 21.5541 49.0802 21.5541 54.6018L3.38836 42.849C2.93241 42.5336 2.5625 42.0995 2.31492 41.5892C2.06734 41.0789 1.95059 40.5099 1.97609 39.9381C2.00159 39.3663 2.16847 38.8113 2.46038 38.3274C2.75229 37.8435 3.15924 37.4474 3.64128 37.1779L21.5541 21.6133Z" fill="url(#paint0_linear_4031_955)"/>
<path d="M140.661 39.743H6.48867C6.19286 39.7432 5.90085 39.8129 5.63422 39.9472C5.3676 40.0814 5.13317 40.2767 4.94825 40.5186C4.76333 40.7605 4.63264 41.0428 4.56584 41.3447C4.49904 41.6467 4.49784 41.9604 4.56233 42.2629L6.51557 45.0534L2.42077 42.1445C1.43429 41.4637 0.689075 40.4617 0.300094 39.2931C-0.0888868 38.1246 -0.100018 36.8544 0.268435 35.6785L11.0624 1.92797C11.2407 1.36693 11.583 0.878876 12.0407 0.532876C12.4985 0.186876 13.0485 0.000458219 13.6129 9.22606e-06H151.466C151.822 -0.00116734 152.17 0.110213 152.465 0.319602C152.759 0.528991 152.987 0.82665 153.118 1.1737C153.249 1.52074 153.276 1.90105 153.198 2.26491C153.119 2.62877 152.937 2.95928 152.676 3.21327L136.98 18.5749C136.551 18.9985 136.254 19.5485 136.129 20.1524C136.005 20.7562 136.057 21.3855 136.281 21.9573L142.297 37.178C142.408 37.4599 142.452 37.7662 142.423 38.0698C142.395 38.3734 142.295 38.665 142.133 38.9187C141.971 39.1724 141.752 39.3803 141.496 39.5241C141.239 39.6679 140.952 39.7431 140.661 39.743Z" fill="url(#paint1_linear_4031_955)"/>
<defs>
<linearGradient id="paint0_linear_4031_955" x1="16.7382" y1="58.4418" x2="16.7382" y2="39.2637" gradientUnits="userSpaceOnUse">
<stop offset="0.01" stop-color="#BE3758"/>
<stop offset="1" stop-color="#79172F"/>
</linearGradient>
<linearGradient id="paint1_linear_4031_955" x1="133.247" y1="9.94381" x2="10.6067" y2="31.1573" gradientUnits="userSpaceOnUse">
<stop stop-color="#EA2857"/>
<stop offset="1" stop-color="#BE3758"/>
</linearGradient>
</defs>
</svg>
